<svg height="512pt" viewBox="0 0 512 512" width="512pt" xmlns="http://www.w3.org/2000/svg"><path d="m512 256c0 34.261719-6.730469 66.945312-18.945312 96.820312-38.179688 93.382813-129.933594 159.179688-237.054688 159.179688-107.144531 0-198.90625-65.816406-237.066406-159.222656-12.214844-29.863282-18.933594-62.535156-18.933594-96.777344 0-141.386719 114.613281-256 256-256s256 114.613281 256 256zm0 0" fill="#f76cae"/><path d="m468.042969 269.488281c-1.789063 28.589844-9.4375 57.261719-23.46875 84.3125-13.855469 26.71875-32.601563 49.257813-54.566407 67.09375-63.65625 51.679688-154.382812 63.84375-231.808593 23.679688-68.558594-35.558594-109.589844-103.269531-114.21875-175.09375-.367188-5.558594-.511719-11.140625-.429688-16.742188.472657-31.941406 8.171875-64.257812 23.875-94.539062 14.808594-28.558594 35.183594-52.320313 59.121094-70.6875 63.382813-48.632813 151.667969-59.289063 227.253906-20.085938 70.46875 36.550781 111.867188 107.070313 114.53125 181.125.253907 6.957031.167969 13.949219-.289062 20.9375zm0 0" fill="#2f373b"/><path d="m139.570312 89.816406c4.671876 6.246094-5.367187 13.753906-.695312 20 4.667969 6.25 14.707031-1.257812 19.375 4.988282 4.679688 6.253906-5.367188 13.753906-.6875 20.007812 4.667969 6.246094 14.707031-1.261719 19.375 4.988281 4.671875 6.246094-5.367188 13.753907-.699219 20 4.679688 6.253907 14.71875-1.253906 19.386719 4.996094 4.671875 6.246094-5.367188 13.753906-.695312 20 4.667968 6.246094 14.71875-1.265625 19.390624 4.984375 4.667969 6.246094-5.375 13.761719-.699218 20 4.667968 6.25 14.707031-1.257812 19.375 4.988281 4.671875 6.25-5.367188 13.753907-.695313 20.003907 4.667969 6.246093 14.707031-1.261719 19.378907 4.976562 4.671874 6.25 2.359374 6.4375-1.242188 13.363281-3.601562 6.921875-2.851562-2.375-8.679688-3.667969-7.617187-1.699218-9.34375 12.164063-17.152343 11.941407-7.796875-.21875-7.441407-12.75-15.238281-12.964844-7.808594-.226563-8.152344 12.308594-15.957032 12.085937-7.796875-.21875-7.445312-12.746093-15.242187-12.964843-7.804688-.226563-8.148438 12.308593-15.945313 12.089843-7.804687-.222656-7.453125-12.75-15.25-12.96875s-8.148437 12.3125-15.945312 12.09375-7.449219-12.761718-15.246094-12.980468-8.15625 12.320312-15.953125 12.101562-7.445313-12.761718-15.242187-12.980468c-7.796876-.21875-8.144532 12.324218-15.949219 12.09375-7.796875-.21875-7.441407-12.75-15.238281-12.96875-5.058594-.140626-6.984376 5.089843-9.839844 8.714843.464844-31.9375 8.164062-64.257812 23.871094-94.542969 14.808593-28.550781 35.183593-52.316406 59.117187-70.683593 4.636719.003906 9.972656-1.773438 13.023437 2.304687zm0 0" fill="#6cb9d3"/><path d="m468.335938 248.550781c1.28125 35.390625-6.296876 71.574219-23.761719 105.253907-13.855469 26.714843-32.601563 49.257812-54.5625 67.09375-.199219-.660157-.523438-1.308594-.996094-1.941407-4.667969-6.246093-14.710937 1.269531-19.390625-4.984375-4.667969-6.246094 5.375-13.761718.703125-20.011718-4.675781-6.238282-14.710937 1.269531-19.382813-4.976563-4.667968-6.25 5.367188-13.753906.699219-20.003906-4.679687-6.25-14.714843 1.253906-19.386719-4.992188-4.667968-6.246093 5.367188-13.753906.699219-20-4.671875-6.25-14.714843 1.253907-19.386719-4.996093-4.667968-6.246094 5.367188-13.753907.699219-20-4.671875-6.246094-14.707031 1.257812-19.390625-4.984376-4.671875-6.246093 5.382813-13.757812.710938-20.007812-4.679688-6.25-14.722656 1.265625-19.390625-4.980469-4.671875-6.25 5.367187-13.753906.699219-20.003906-4.671876-6.246094-14.707032 1.261719-19.378907-4.988281-4.675781-6.238282-2.363281-6.425782 1.242188-13.351563 3.601562-6.925781 2.855469 2.363281 8.679687 3.664063 7.617188 1.703125 9.34375-12.160156 17.148438-11.9375 7.796875.21875 7.445312 12.75 15.242187 12.964844 7.804688.226562 8.160157-12.304688 15.957031-12.085938 7.796876.21875 7.441407 12.746094 15.25 12.96875 7.796876.21875 8.140626-12.3125 15.9375-12.09375 7.804688.222656 7.449219 12.75 15.246094 12.96875s8.152344-12.3125 15.949219-12.09375c7.804687.226562 7.449219 12.753906 15.246094 12.972656s8.152343-12.3125 15.949219-12.09375c7.796874.21875 7.445312 12.761719 15.242187 12.980469s8.15625-12.320313 15.953125-12.101563c7.792969.226563 7.4375 12.757813 15.234375 12.976563 6.46875.175781 7.808594-8.402344 12.539063-11.214844zm0 0" fill="#6cb9d3"/><path d="m43.980469 269.480469c65.003906-5.957031 130.003906-9.175781 195-9.644531v207.964843c-27.410157-2.183593-54.839844-9.769531-80.78125-23.226562-68.558594-35.558594-109.589844-103.269531-114.21875-175.09375zm0 0" fill="#151a1c"/><path d="m468.042969 269.488281c-1.789063 28.589844-9.4375 57.261719-23.46875 84.3125-13.855469 26.71875-32.601563 49.257813-54.566407 67.09375-39.675781 32.214844-89.871093 49.070313-140.808593 47.480469v-208.59375c72.953125-.21875 145.898437 3.019531 218.84375 9.707031zm0 0" fill="#2f373b"/><path d="m339.070312 256c0 1.765625-.054687 3.519531-.167968 5.253906-2.707032 43.4375-38.796875 77.816406-82.902344 77.816406-44.117188 0-80.195312-34.378906-82.902344-77.816406-.113281-1.734375-.167968-3.488281-.167968-5.253906 0-45.882812 37.1875-83.070312 83.070312-83.070312 45.871094 0 83.070312 37.1875 83.070312 83.070312zm0 0" fill="#f2efea"/><path d="m338.902344 261.253906c-2.707032 43.4375-38.796875 77.816406-82.902344 77.816406-44.117188 0-80.195312-34.378906-82.902344-77.816406 55.273438-1.984375 110.539063-1.984375 165.804688 0zm0 0" fill="#d8d4ce"/><path d="m198.164062 283.417969c-3.023437 0-5.855468-1.894531-6.90625-4.914063-2.03125-5.847656-3.261718-11.964844-3.644531-18.175781-.089843-1.363281-.140625-2.828125-.140625-4.328125 0-11.070312 2.703125-22.070312 7.816406-31.808594 1.875-3.578125 6.300782-4.957031 9.875-3.078125 3.578126 1.878907 4.957032 6.296875 3.078126 9.875-4.074219 7.761719-6.136719 16.175781-6.136719 25.011719 0 1.175781.035156 2.320312.105469 3.390625.308593 4.914063 1.269531 9.71875 2.867187 14.3125 1.324219 3.816406-.691406 7.984375-4.507813 9.308594-.796874.277343-1.605468.40625-2.40625.40625zm0 0" fill="#c92888"/><path d="m314.511719 245.285156c-3.128907 0-6.023438-2.019531-6.988281-5.164062-7-22.738282-27.707032-38.019532-51.523438-38.019532-4.039062 0-7.3125-3.273437-7.3125-7.3125 0-4.039062 3.273438-7.316406 7.3125-7.316406 30.277344 0 56.601562 19.429688 65.503906 48.347656 1.1875 3.859376-.980468 7.953126-4.839844 9.140626-.714843.21875-1.441406.324218-2.152343.324218zm0 0" fill="#c92888"/><path d="m219.691406 214.03125c-2.242187 0-4.457031-1.027344-5.890625-2.972656-2.398437-3.25-1.707031-7.828125 1.542969-10.226563 4.640625-3.425781 9.699219-6.253906 15.03125-8.40625 3.746094-1.511719 8.007812.300781 9.519531 4.046875s-.300781 8.007813-4.046875 9.519532c-4.191406 1.691406-8.167968 3.914062-11.820312 6.609374-1.304688.964844-2.828125 1.429688-4.335938 1.429688zm0 0" fill="#c92888"/><path d="m493.054688 352.820312c-18.261719 44.679688-48.796876 83.039063-87.394532 110.882813-6.121094 4.433594-12.433594 8.582031-18.945312 12.457031-38.261719 22.769532-82.964844 35.839844-130.714844 35.839844-79.160156 0-149.933594-35.933594-196.878906-92.378906-8.476563-10.179688-16.164063-21.023438-22.988282-32.445313-6.5625-10.960937-12.320312-22.453125-17.199218-34.398437 1.460937-17.992188 3.21875-35.976563 5.253906-53.96875.953125-8.378906 7.640625-14.921875 16.03125-15.703125 143.859375-13.417969 287.703125-13.417969 431.550781 0 8.390625.78125 15.078125 7.335937 16.03125 15.703125 2.035157 18.003906 3.78125 36.007812 5.253907 54.011718zm0 0" fill="#ffd073"/><path d="m269.675781 256c0 7.554688-6.125 13.679688-13.679687 13.679688-7.554688 0-13.679688-6.125-13.679688-13.679688s6.125-13.679688 13.679688-13.679688c7.554687 0 13.679687 6.125 13.679687 13.679688zm0 0" fill="#6ccfcb"/><path d="m91.375 363.226562c7.554688-3.269531 12.113281-10.824218 12.113281-22.347656 0-20.230468-14.242187-25.351562-28.484375-25.351562h-29.183594c-4.851562 0-9.6875 2.277344-9.6875 6.835937v64.8125c6.824219 11.421875 14.511719 22.265625 22.988282 32.445313h18.304687c16.09375 0 28.621094-8.121094 28.621094-30.617188v-2.988281c0-14.242187-5.976563-19.507813-14.671875-22.789063zm-33.175781-28.335937h14.953125c5.414062 0 8.121094 4.984375 8.121094 9.96875 0 4.847656-2.707032 9.820313-8.121094 9.820313h-14.953125zm25.632812 52.265625c0 9.109375-4.273437 13.09375-11.390625 13.09375h-14.242187v-28.476562h14.242187c7.117188 0 11.390625 3.417968 11.390625 13.105468zm0 0" fill="#ff9c40"/><path d="m139.792969 358.957031h21.359375c4.273437 0 6.691406 4.128907 6.691406 8.6875 0 3.84375-1.992188 8.398438-6.691406 8.398438h-21.359375v24.207031h38.164062c4.269531 0 6.691407 4.558594 6.691407 9.828125 0 4.554687-1.992188 9.539063-6.691407 9.539063h-50.695312c-4.839844 0-9.683594-2.28125-9.683594-6.835938v-90.417969c0-4.558593 4.84375-6.835937 9.683594-6.835937h50.695312c4.699219 0 6.691407 4.984375 6.691407 9.539062 0 5.269532-2.421876 9.824219-6.691407 9.824219h-38.164062zm0 0" fill="#ff9c40"/><path d="m237.046875 391.707031c0-17.230469-45.140625-14.238281-45.140625-47.558593 0-21.359376 18.65625-29.476563 36.457031-29.476563 7.546875 0 28.335938 1.425781 28.335938 12.53125 0 3.84375-2.5625 11.675781-8.828125 11.675781-5.128906 0-7.832032-5.410156-19.507813-5.410156-10.109375 0-14.242187 4.128906-14.242187 8.542969 0 14.238281 45.140625 11.535156 45.140625 47.417969 0 20.503906-14.949219 31.609374-35.597657 31.609374-18.652343 0-34.316406-9.113281-34.316406-18.511718 0-4.839844 4.269532-11.960938 9.683594-11.960938 6.691406 0 10.964844 10.539063 24.207031 10.539063 6.546875 0 13.808594-2.5625 13.808594-9.398438zm0 0" fill="#ff9c40"/><path d="m331.882812 315.527344c4.699219 0 6.691407 5.125 6.691407 9.824218 0 5.410157-2.421875 10.109376-6.691407 10.109376h-19.652343v77.320312c0 4.558594-5.554688 6.835938-11.105469 6.835938-5.554688 0-11.105469-2.277344-11.105469-6.835938v-77.320312h-19.652343c-4.269532 0-6.691407-4.699219-6.691407-10.109376 0-4.699218 1.992188-9.824218 6.691407-9.824218zm0 0" fill="#ff9c40"/><g fill="#fff"><path d="m228.117188 453.242188c0-4.289063-2.917969-6.515626-5.832032-6.515626-2.746094 0-5.402344 2.058594-5.402344 6.429688v19.210938c0 2.058593-3.089843 4.117187-6.691406 4.117187-3.859375 0-6.601562-2.058594-6.601562-4.117187v-32.671876c0-2.402343 2.742187-4.03125 6.601562-4.03125 3.171875 0 5.832032 1.628907 5.832032 4.03125v1.972657c1.886718-3.347657 5.660156-6.519531 11.320312-6.519531 4.632812 0 8.40625 3.515624 10.121094 8.578124 3-5.832031 7.976562-8.578124 12.863281-8.578124 8.0625 0 15.609375 6.519531 15.609375 18.011718v19.210938c0 2.058594-3 4.113281-6.6875 4.113281-3.515625 0-6.605469-2.058594-6.605469-4.113281v-19.210938c0-4.289062-2.828125-6.519531-5.746093-6.519531-2.742188 0-5.488282 2.144531-5.488282 6.519531v19.296875c0 2.828125-3.34375 4.027344-6.691406 4.027344-3.085938 0-6.601562-1.199219-6.601562-4.027344zm0 0"/><path d="m272.882812 459.332031v-19.554687c0-2.058594 3.003907-4.117188 6.691407-4.117188 3.515625 0 6.601562 2.058594 6.601562 4.117188v19.554687c0 3.257813 2.832031 6.433594 6.261719 6.433594s6.175781-3.175781 6.175781-6.433594v-19.640625c0-2.140625 3.085938-4.03125 6.6875-4.03125 3.859375 0 6.605469 1.890625 6.605469 4.03125v19.640625c0 9.605469-8.832031 18.007813-19.46875 18.007813-10.722656 0-19.554688-8.488282-19.554688-18.007813zm0 0"/><path d="m338.40625 464.648438c0-5.917969-20.070312-1.886719-20.070312-16.292969 0-6.347657 3.945312-13.207031 16.125-13.207031 7.460937 0 14.578124 2.570312 14.578124 6.171874 0 1.714844-1.714843 6.261719-4.800781 6.261719-2.316406 0-4.976562-2.574219-9.605469-2.574219-3.429687 0-4.890624 1.460938-4.890624 2.746094 0 4.800782 20.242187 1.285156 20.242187 16.378906 0 8.0625-5.832031 13.207032-16.554687 13.207032-9.003907 0-16.292969-3.6875-16.292969-7.890625 0-2.058594 1.714843-5.832031 4.375-5.832031 2.742187 0 4.714843 3.859374 11.574219 3.859374 4.546874.003907 5.320312-1.625 5.320312-2.828124zm0 0"/><path d="m369.535156 421.597656c0 3.257813-3.085937 6.175782-6.945312 6.175782-3.945313 0-7.03125-2.917969-7.03125-6.175782 0-3.261718 3.085937-6.089844 7.03125-6.089844 3.859375 0 6.945312 2.828126 6.945312 6.089844zm-.257812 18.09375v32.675782c0 2.058593-3 4.117187-6.6875 4.117187-3.859375 0-6.605469-2.058594-6.605469-4.117187v-32.675782c0-2.402344 2.746094-4.03125 6.605469-4.03125 3.6875 0 6.6875 1.628906 6.6875 4.03125zm0 0"/><path d="m395.859375 446.726562c4.640625 0 6.175781 2.058594 8.234375 2.058594 3.09375 0 5.152344-4.035156 5.152344-6.523437 0-3.769531-6.09375-7.113281-14.492188-7.113281-13.46875 0-19.300781 7.972656-19.300781 18.179687v5.832031c0 7.980469 3.457031 14.449219 11.261719 17 6.511718-3.875 12.824218-8.023437 18.945312-12.457031-.480468-.164063-1.003906-.257813-1.566406-.257813-2.308594 0-3.511719 2.316407-8.140625 2.316407-5.234375 0-7.210937-2.402344-7.210937-6.601563v-5.832031c0-4.199219 1.976562-6.601563 7.117187-6.601563zm0 0"/></g><path d="m385.347656 315.4375v48.207031c-3.875-1.722656-8.511718-2.730469-13.5-2.730469-13.597656 0-24.621094 7.464844-24.621094 16.675782 0 9.210937 11.023438 16.679687 24.621094 16.679687s24.621094-7.46875 24.621094-16.679687v-48.988282l48.207031-10.472656v32.625c-3.875-1.722656-8.511719-2.730468-13.5-2.730468-13.597656 0-24.621093 7.464843-24.621093 16.675781 0 9.210937 11.023437 16.679687 24.621093 16.679687 13.597657 0 24.621094-7.46875 24.621094-16.679687v-61.207031c0-4.929688-4.554687-8.601563-9.371094-7.554688l-54.988281 11.949219c-3.554688.769531-6.089844 3.917969-6.089844 7.550781zm0 0" fill="#ff9c40"/></svg>